%TF.GenerationSoftware,KiCad,Pcbnew,(5.0.2)-1*%
%TF.CreationDate,2021-01-25T23:17:42+01:00*%
%TF.ProjectId,GasSensor,47617353-656e-4736-9f72-2e6b69636164,rev?*%
%TF.SameCoordinates,Original*%
%TF.FileFunction,Legend,Top*%
%TF.FilePolarity,Positive*%
%FSLAX46Y46*%
G04 Gerber Fmt 4.6, Leading zero omitted, Abs format (unit mm)*
G04 Created by KiCad (PCBNEW (5.0.2)-1) date 25/01/2021 23:17:42*
%MOMM*%
%LPD*%
G01*
G04 APERTURE LIST*
%ADD10C,0.150000*%
%ADD11C,0.120000*%
G04 APERTURE END LIST*
D10*
X139390380Y-120999285D02*
X139390380Y-121570714D01*
X139390380Y-121285000D02*
X138390380Y-121285000D01*
X138533238Y-121380238D01*
X138628476Y-121475476D01*
X138676095Y-121570714D01*
D11*
%TO.C,R9*%
X142098000Y-101188000D02*
X142098000Y-103028000D01*
X142098000Y-103028000D02*
X145938000Y-103028000D01*
X145938000Y-103028000D02*
X145938000Y-101188000D01*
X145938000Y-101188000D02*
X142098000Y-101188000D01*
X141148000Y-102108000D02*
X142098000Y-102108000D01*
X146888000Y-102108000D02*
X145938000Y-102108000D01*
%TO.C,R8*%
X142098000Y-105125000D02*
X142098000Y-106965000D01*
X142098000Y-106965000D02*
X145938000Y-106965000D01*
X145938000Y-106965000D02*
X145938000Y-105125000D01*
X145938000Y-105125000D02*
X142098000Y-105125000D01*
X141148000Y-106045000D02*
X142098000Y-106045000D01*
X146888000Y-106045000D02*
X145938000Y-106045000D01*
%TO.C,R7*%
X142098000Y-108808000D02*
X142098000Y-110648000D01*
X142098000Y-110648000D02*
X145938000Y-110648000D01*
X145938000Y-110648000D02*
X145938000Y-108808000D01*
X145938000Y-108808000D02*
X142098000Y-108808000D01*
X141148000Y-109728000D02*
X142098000Y-109728000D01*
X146888000Y-109728000D02*
X145938000Y-109728000D01*
%TO.C,C1*%
X151638000Y-108695000D02*
X151638000Y-108005000D01*
X151638000Y-103275000D02*
X151638000Y-103965000D01*
X153058000Y-108005000D02*
X153058000Y-103965000D01*
X150218000Y-108005000D02*
X153058000Y-108005000D01*
X150218000Y-103965000D02*
X150218000Y-108005000D01*
X153058000Y-103965000D02*
X150218000Y-103965000D01*
%TO.C,C3*%
X158138000Y-103965000D02*
X155298000Y-103965000D01*
X155298000Y-103965000D02*
X155298000Y-108005000D01*
X155298000Y-108005000D02*
X158138000Y-108005000D01*
X158138000Y-108005000D02*
X158138000Y-103965000D01*
X156718000Y-103275000D02*
X156718000Y-103965000D01*
X156718000Y-108695000D02*
X156718000Y-108005000D01*
%TO.C,C4*%
X168298000Y-103965000D02*
X165458000Y-103965000D01*
X165458000Y-103965000D02*
X165458000Y-108005000D01*
X165458000Y-108005000D02*
X168298000Y-108005000D01*
X168298000Y-108005000D02*
X168298000Y-103965000D01*
X166878000Y-103275000D02*
X166878000Y-103965000D01*
X166878000Y-108695000D02*
X166878000Y-108005000D01*
%TO.C,C2*%
X160378000Y-108125000D02*
X163218000Y-108125000D01*
X163218000Y-108125000D02*
X163218000Y-104085000D01*
X163218000Y-104085000D02*
X160378000Y-104085000D01*
X160378000Y-104085000D02*
X160378000Y-108125000D01*
X161798000Y-108815000D02*
X161798000Y-108125000D01*
X161798000Y-103395000D02*
X161798000Y-104085000D01*
%TO.C,U2*%
X122428000Y-117475000D02*
X72428000Y-117475000D01*
X72428000Y-117475000D02*
X72428000Y-83475000D01*
X72428000Y-83475000D02*
X122428000Y-83475000D01*
X122428000Y-83475000D02*
X122428000Y-117475000D01*
%TO.C,U1*%
X160528000Y-90805000D02*
X160528000Y-92075000D01*
X160528000Y-90805000D02*
X151638000Y-90805000D01*
X151638000Y-90805000D02*
X150368000Y-90805000D01*
X150368000Y-90805000D02*
X150368000Y-95885000D01*
X150368000Y-95885000D02*
X160528000Y-95885000D01*
X160528000Y-95885000D02*
X160528000Y-94615000D01*
X160528000Y-94615000D02*
G75*
G02X160528000Y-92075000I0J1270000D01*
G01*
%TO.C,R6*%
X164338000Y-96215000D02*
X164338000Y-95265000D01*
X164338000Y-90475000D02*
X164338000Y-91425000D01*
X165258000Y-95265000D02*
X165258000Y-91425000D01*
X163418000Y-95265000D02*
X165258000Y-95265000D01*
X163418000Y-91425000D02*
X163418000Y-95265000D01*
X165258000Y-91425000D02*
X163418000Y-91425000D01*
%TO.C,R5*%
X132588000Y-89205000D02*
X132588000Y-90155000D01*
X132588000Y-94945000D02*
X132588000Y-93995000D01*
X131668000Y-90155000D02*
X131668000Y-93995000D01*
X133508000Y-90155000D02*
X131668000Y-90155000D01*
X133508000Y-93995000D02*
X133508000Y-90155000D01*
X131668000Y-93995000D02*
X133508000Y-93995000D01*
%TO.C,R3*%
X168148000Y-96215000D02*
X168148000Y-95265000D01*
X168148000Y-90475000D02*
X168148000Y-91425000D01*
X169068000Y-95265000D02*
X169068000Y-91425000D01*
X167228000Y-95265000D02*
X169068000Y-95265000D01*
X167228000Y-91425000D02*
X167228000Y-95265000D01*
X169068000Y-91425000D02*
X167228000Y-91425000D01*
%TO.C,R2*%
X140208000Y-89205000D02*
X140208000Y-90155000D01*
X140208000Y-94945000D02*
X140208000Y-93995000D01*
X139288000Y-90155000D02*
X139288000Y-93995000D01*
X141128000Y-90155000D02*
X139288000Y-90155000D01*
X141128000Y-93995000D02*
X141128000Y-90155000D01*
X139288000Y-93995000D02*
X141128000Y-93995000D01*
%TO.C,R1*%
X136398000Y-94945000D02*
X136398000Y-93995000D01*
X136398000Y-89205000D02*
X136398000Y-90155000D01*
X137318000Y-93995000D02*
X137318000Y-90155000D01*
X135478000Y-93995000D02*
X137318000Y-93995000D01*
X135478000Y-90155000D02*
X135478000Y-93995000D01*
X137318000Y-90155000D02*
X135478000Y-90155000D01*
%TO.C,GasSensor1*%
X135743856Y-109653039D02*
X134852902Y-108762084D01*
X134966039Y-110430856D02*
X135743856Y-109653039D01*
X134075084Y-109539902D02*
X134966039Y-110430856D01*
X134852674Y-108762371D02*
G75*
G03X134075084Y-109539902I-3774674J2997371D01*
G01*
D10*
%TO.C,P1*%
X140208000Y-125095000D02*
X157988000Y-125095000D01*
X157988000Y-125095000D02*
X157988000Y-122555000D01*
X157988000Y-122555000D02*
X140208000Y-122555000D01*
X137388000Y-125375000D02*
X138938000Y-125375000D01*
X140208000Y-125095000D02*
X140208000Y-122555000D01*
X138938000Y-122275000D02*
X137388000Y-122275000D01*
X137388000Y-122275000D02*
X137388000Y-125375000D01*
%TO.C,P2*%
X163068000Y-125095000D02*
X175768000Y-125095000D01*
X175768000Y-125095000D02*
X175768000Y-122555000D01*
X175768000Y-122555000D02*
X163068000Y-122555000D01*
X160248000Y-125375000D02*
X161798000Y-125375000D01*
X163068000Y-125095000D02*
X163068000Y-122555000D01*
X161798000Y-122275000D02*
X160248000Y-122275000D01*
X160248000Y-122275000D02*
X160248000Y-125375000D01*
%TO.C,P3*%
X131064000Y-76835000D02*
X153924000Y-76835000D01*
X153924000Y-76835000D02*
X153924000Y-74295000D01*
X153924000Y-74295000D02*
X131064000Y-74295000D01*
X128244000Y-77115000D02*
X129794000Y-77115000D01*
X131064000Y-76835000D02*
X131064000Y-74295000D01*
X129794000Y-74015000D02*
X128244000Y-74015000D01*
X128244000Y-74015000D02*
X128244000Y-77115000D01*
%TO.C,P4*%
X157988000Y-76835000D02*
X175768000Y-76835000D01*
X175768000Y-76835000D02*
X175768000Y-74295000D01*
X175768000Y-74295000D02*
X157988000Y-74295000D01*
X155168000Y-77115000D02*
X156718000Y-77115000D01*
X157988000Y-76835000D02*
X157988000Y-74295000D01*
X156718000Y-74015000D02*
X155168000Y-74015000D01*
X155168000Y-74015000D02*
X155168000Y-77115000D01*
%TO.C,P5*%
X127254000Y-123825000D02*
G75*
G03X127254000Y-123825000I-2286000J0D01*
G01*
%TO.C,P6*%
X179324000Y-118745000D02*
G75*
G03X179324000Y-118745000I-2286000J0D01*
G01*
%TO.C,P7*%
X128524000Y-75565000D02*
G75*
G03X128524000Y-75565000I-2286000J0D01*
G01*
%TO.C,P8*%
X179324000Y-90805000D02*
G75*
G03X179324000Y-90805000I-2286000J0D01*
G01*
%TO.C,R9*%
X143851333Y-100640380D02*
X143518000Y-100164190D01*
X143279904Y-100640380D02*
X143279904Y-99640380D01*
X143660857Y-99640380D01*
X143756095Y-99688000D01*
X143803714Y-99735619D01*
X143851333Y-99830857D01*
X143851333Y-99973714D01*
X143803714Y-100068952D01*
X143756095Y-100116571D01*
X143660857Y-100164190D01*
X143279904Y-100164190D01*
X144327523Y-100640380D02*
X144518000Y-100640380D01*
X144613238Y-100592761D01*
X144660857Y-100545142D01*
X144756095Y-100402285D01*
X144803714Y-100211809D01*
X144803714Y-99830857D01*
X144756095Y-99735619D01*
X144708476Y-99688000D01*
X144613238Y-99640380D01*
X144422761Y-99640380D01*
X144327523Y-99688000D01*
X144279904Y-99735619D01*
X144232285Y-99830857D01*
X144232285Y-100068952D01*
X144279904Y-100164190D01*
X144327523Y-100211809D01*
X144422761Y-100259428D01*
X144613238Y-100259428D01*
X144708476Y-100211809D01*
X144756095Y-100164190D01*
X144803714Y-100068952D01*
%TO.C,R8*%
X143851333Y-104577380D02*
X143518000Y-104101190D01*
X143279904Y-104577380D02*
X143279904Y-103577380D01*
X143660857Y-103577380D01*
X143756095Y-103625000D01*
X143803714Y-103672619D01*
X143851333Y-103767857D01*
X143851333Y-103910714D01*
X143803714Y-104005952D01*
X143756095Y-104053571D01*
X143660857Y-104101190D01*
X143279904Y-104101190D01*
X144422761Y-104005952D02*
X144327523Y-103958333D01*
X144279904Y-103910714D01*
X144232285Y-103815476D01*
X144232285Y-103767857D01*
X144279904Y-103672619D01*
X144327523Y-103625000D01*
X144422761Y-103577380D01*
X144613238Y-103577380D01*
X144708476Y-103625000D01*
X144756095Y-103672619D01*
X144803714Y-103767857D01*
X144803714Y-103815476D01*
X144756095Y-103910714D01*
X144708476Y-103958333D01*
X144613238Y-104005952D01*
X144422761Y-104005952D01*
X144327523Y-104053571D01*
X144279904Y-104101190D01*
X144232285Y-104196428D01*
X144232285Y-104386904D01*
X144279904Y-104482142D01*
X144327523Y-104529761D01*
X144422761Y-104577380D01*
X144613238Y-104577380D01*
X144708476Y-104529761D01*
X144756095Y-104482142D01*
X144803714Y-104386904D01*
X144803714Y-104196428D01*
X144756095Y-104101190D01*
X144708476Y-104053571D01*
X144613238Y-104005952D01*
%TO.C,R7*%
X143851333Y-108260380D02*
X143518000Y-107784190D01*
X143279904Y-108260380D02*
X143279904Y-107260380D01*
X143660857Y-107260380D01*
X143756095Y-107308000D01*
X143803714Y-107355619D01*
X143851333Y-107450857D01*
X143851333Y-107593714D01*
X143803714Y-107688952D01*
X143756095Y-107736571D01*
X143660857Y-107784190D01*
X143279904Y-107784190D01*
X144184666Y-107260380D02*
X144851333Y-107260380D01*
X144422761Y-108260380D01*
%TO.C,C1*%
X154415142Y-106151666D02*
X154462761Y-106199285D01*
X154510380Y-106342142D01*
X154510380Y-106437380D01*
X154462761Y-106580238D01*
X154367523Y-106675476D01*
X154272285Y-106723095D01*
X154081809Y-106770714D01*
X153938952Y-106770714D01*
X153748476Y-106723095D01*
X153653238Y-106675476D01*
X153558000Y-106580238D01*
X153510380Y-106437380D01*
X153510380Y-106342142D01*
X153558000Y-106199285D01*
X153605619Y-106151666D01*
X154510380Y-105199285D02*
X154510380Y-105770714D01*
X154510380Y-105485000D02*
X153510380Y-105485000D01*
X153653238Y-105580238D01*
X153748476Y-105675476D01*
X153796095Y-105770714D01*
%TO.C,C3*%
X159495142Y-106151666D02*
X159542761Y-106199285D01*
X159590380Y-106342142D01*
X159590380Y-106437380D01*
X159542761Y-106580238D01*
X159447523Y-106675476D01*
X159352285Y-106723095D01*
X159161809Y-106770714D01*
X159018952Y-106770714D01*
X158828476Y-106723095D01*
X158733238Y-106675476D01*
X158638000Y-106580238D01*
X158590380Y-106437380D01*
X158590380Y-106342142D01*
X158638000Y-106199285D01*
X158685619Y-106151666D01*
X158590380Y-105818333D02*
X158590380Y-105199285D01*
X158971333Y-105532619D01*
X158971333Y-105389761D01*
X159018952Y-105294523D01*
X159066571Y-105246904D01*
X159161809Y-105199285D01*
X159399904Y-105199285D01*
X159495142Y-105246904D01*
X159542761Y-105294523D01*
X159590380Y-105389761D01*
X159590380Y-105675476D01*
X159542761Y-105770714D01*
X159495142Y-105818333D01*
%TO.C,C4*%
X169655142Y-106151666D02*
X169702761Y-106199285D01*
X169750380Y-106342142D01*
X169750380Y-106437380D01*
X169702761Y-106580238D01*
X169607523Y-106675476D01*
X169512285Y-106723095D01*
X169321809Y-106770714D01*
X169178952Y-106770714D01*
X168988476Y-106723095D01*
X168893238Y-106675476D01*
X168798000Y-106580238D01*
X168750380Y-106437380D01*
X168750380Y-106342142D01*
X168798000Y-106199285D01*
X168845619Y-106151666D01*
X169083714Y-105294523D02*
X169750380Y-105294523D01*
X168702761Y-105532619D02*
X169417047Y-105770714D01*
X169417047Y-105151666D01*
%TO.C,C2*%
X159735142Y-106271666D02*
X159782761Y-106319285D01*
X159830380Y-106462142D01*
X159830380Y-106557380D01*
X159782761Y-106700238D01*
X159687523Y-106795476D01*
X159592285Y-106843095D01*
X159401809Y-106890714D01*
X159258952Y-106890714D01*
X159068476Y-106843095D01*
X158973238Y-106795476D01*
X158878000Y-106700238D01*
X158830380Y-106557380D01*
X158830380Y-106462142D01*
X158878000Y-106319285D01*
X158925619Y-106271666D01*
X158925619Y-105890714D02*
X158878000Y-105843095D01*
X158830380Y-105747857D01*
X158830380Y-105509761D01*
X158878000Y-105414523D01*
X158925619Y-105366904D01*
X159020857Y-105319285D01*
X159116095Y-105319285D01*
X159258952Y-105366904D01*
X159830380Y-105938333D01*
X159830380Y-105319285D01*
%TO.C,U2*%
X120980380Y-120436904D02*
X121789904Y-120436904D01*
X121885142Y-120389285D01*
X121932761Y-120341666D01*
X121980380Y-120246428D01*
X121980380Y-120055952D01*
X121932761Y-119960714D01*
X121885142Y-119913095D01*
X121789904Y-119865476D01*
X120980380Y-119865476D01*
X121075619Y-119436904D02*
X121028000Y-119389285D01*
X120980380Y-119294047D01*
X120980380Y-119055952D01*
X121028000Y-118960714D01*
X121075619Y-118913095D01*
X121170857Y-118865476D01*
X121266095Y-118865476D01*
X121408952Y-118913095D01*
X121980380Y-119484523D01*
X121980380Y-118865476D01*
%TO.C,U1*%
X160750380Y-94106904D02*
X161559904Y-94106904D01*
X161655142Y-94059285D01*
X161702761Y-94011666D01*
X161750380Y-93916428D01*
X161750380Y-93725952D01*
X161702761Y-93630714D01*
X161655142Y-93583095D01*
X161559904Y-93535476D01*
X160750380Y-93535476D01*
X161750380Y-92535476D02*
X161750380Y-93106904D01*
X161750380Y-92821190D02*
X160750380Y-92821190D01*
X160893238Y-92916428D01*
X160988476Y-93011666D01*
X161036095Y-93106904D01*
%TO.C,R6*%
X166710380Y-93511666D02*
X166234190Y-93845000D01*
X166710380Y-94083095D02*
X165710380Y-94083095D01*
X165710380Y-93702142D01*
X165758000Y-93606904D01*
X165805619Y-93559285D01*
X165900857Y-93511666D01*
X166043714Y-93511666D01*
X166138952Y-93559285D01*
X166186571Y-93606904D01*
X166234190Y-93702142D01*
X166234190Y-94083095D01*
X165710380Y-92654523D02*
X165710380Y-92845000D01*
X165758000Y-92940238D01*
X165805619Y-92987857D01*
X165948476Y-93083095D01*
X166138952Y-93130714D01*
X166519904Y-93130714D01*
X166615142Y-93083095D01*
X166662761Y-93035476D01*
X166710380Y-92940238D01*
X166710380Y-92749761D01*
X166662761Y-92654523D01*
X166615142Y-92606904D01*
X166519904Y-92559285D01*
X166281809Y-92559285D01*
X166186571Y-92606904D01*
X166138952Y-92654523D01*
X166091333Y-92749761D01*
X166091333Y-92940238D01*
X166138952Y-93035476D01*
X166186571Y-93083095D01*
X166281809Y-93130714D01*
%TO.C,R5*%
X131120380Y-92241666D02*
X130644190Y-92575000D01*
X131120380Y-92813095D02*
X130120380Y-92813095D01*
X130120380Y-92432142D01*
X130168000Y-92336904D01*
X130215619Y-92289285D01*
X130310857Y-92241666D01*
X130453714Y-92241666D01*
X130548952Y-92289285D01*
X130596571Y-92336904D01*
X130644190Y-92432142D01*
X130644190Y-92813095D01*
X130120380Y-91336904D02*
X130120380Y-91813095D01*
X130596571Y-91860714D01*
X130548952Y-91813095D01*
X130501333Y-91717857D01*
X130501333Y-91479761D01*
X130548952Y-91384523D01*
X130596571Y-91336904D01*
X130691809Y-91289285D01*
X130929904Y-91289285D01*
X131025142Y-91336904D01*
X131072761Y-91384523D01*
X131120380Y-91479761D01*
X131120380Y-91717857D01*
X131072761Y-91813095D01*
X131025142Y-91860714D01*
%TO.C,R3*%
X170520380Y-93511666D02*
X170044190Y-93845000D01*
X170520380Y-94083095D02*
X169520380Y-94083095D01*
X169520380Y-93702142D01*
X169568000Y-93606904D01*
X169615619Y-93559285D01*
X169710857Y-93511666D01*
X169853714Y-93511666D01*
X169948952Y-93559285D01*
X169996571Y-93606904D01*
X170044190Y-93702142D01*
X170044190Y-94083095D01*
X169520380Y-93178333D02*
X169520380Y-92559285D01*
X169901333Y-92892619D01*
X169901333Y-92749761D01*
X169948952Y-92654523D01*
X169996571Y-92606904D01*
X170091809Y-92559285D01*
X170329904Y-92559285D01*
X170425142Y-92606904D01*
X170472761Y-92654523D01*
X170520380Y-92749761D01*
X170520380Y-93035476D01*
X170472761Y-93130714D01*
X170425142Y-93178333D01*
%TO.C,R2*%
X138740380Y-92241666D02*
X138264190Y-92575000D01*
X138740380Y-92813095D02*
X137740380Y-92813095D01*
X137740380Y-92432142D01*
X137788000Y-92336904D01*
X137835619Y-92289285D01*
X137930857Y-92241666D01*
X138073714Y-92241666D01*
X138168952Y-92289285D01*
X138216571Y-92336904D01*
X138264190Y-92432142D01*
X138264190Y-92813095D01*
X137835619Y-91860714D02*
X137788000Y-91813095D01*
X137740380Y-91717857D01*
X137740380Y-91479761D01*
X137788000Y-91384523D01*
X137835619Y-91336904D01*
X137930857Y-91289285D01*
X138026095Y-91289285D01*
X138168952Y-91336904D01*
X138740380Y-91908333D01*
X138740380Y-91289285D01*
%TO.C,R1*%
X138770380Y-92241666D02*
X138294190Y-92575000D01*
X138770380Y-92813095D02*
X137770380Y-92813095D01*
X137770380Y-92432142D01*
X137818000Y-92336904D01*
X137865619Y-92289285D01*
X137960857Y-92241666D01*
X138103714Y-92241666D01*
X138198952Y-92289285D01*
X138246571Y-92336904D01*
X138294190Y-92432142D01*
X138294190Y-92813095D01*
X138770380Y-91289285D02*
X138770380Y-91860714D01*
X138770380Y-91575000D02*
X137770380Y-91575000D01*
X137913238Y-91670238D01*
X138008476Y-91765476D01*
X138056095Y-91860714D01*
%TO.C,GasSensor1*%
X127482761Y-111085000D02*
X127387523Y-111037380D01*
X127244666Y-111037380D01*
X127101809Y-111085000D01*
X127006571Y-111180238D01*
X126958952Y-111275476D01*
X126911333Y-111465952D01*
X126911333Y-111608809D01*
X126958952Y-111799285D01*
X127006571Y-111894523D01*
X127101809Y-111989761D01*
X127244666Y-112037380D01*
X127339904Y-112037380D01*
X127482761Y-111989761D01*
X127530380Y-111942142D01*
X127530380Y-111608809D01*
X127339904Y-111608809D01*
X128387523Y-112037380D02*
X128387523Y-111513571D01*
X128339904Y-111418333D01*
X128244666Y-111370714D01*
X128054190Y-111370714D01*
X127958952Y-111418333D01*
X128387523Y-111989761D02*
X128292285Y-112037380D01*
X128054190Y-112037380D01*
X127958952Y-111989761D01*
X127911333Y-111894523D01*
X127911333Y-111799285D01*
X127958952Y-111704047D01*
X128054190Y-111656428D01*
X128292285Y-111656428D01*
X128387523Y-111608809D01*
X128816095Y-111989761D02*
X128911333Y-112037380D01*
X129101809Y-112037380D01*
X129197047Y-111989761D01*
X129244666Y-111894523D01*
X129244666Y-111846904D01*
X129197047Y-111751666D01*
X129101809Y-111704047D01*
X128958952Y-111704047D01*
X128863714Y-111656428D01*
X128816095Y-111561190D01*
X128816095Y-111513571D01*
X128863714Y-111418333D01*
X128958952Y-111370714D01*
X129101809Y-111370714D01*
X129197047Y-111418333D01*
X129625619Y-111989761D02*
X129768476Y-112037380D01*
X130006571Y-112037380D01*
X130101809Y-111989761D01*
X130149428Y-111942142D01*
X130197047Y-111846904D01*
X130197047Y-111751666D01*
X130149428Y-111656428D01*
X130101809Y-111608809D01*
X130006571Y-111561190D01*
X129816095Y-111513571D01*
X129720857Y-111465952D01*
X129673238Y-111418333D01*
X129625619Y-111323095D01*
X129625619Y-111227857D01*
X129673238Y-111132619D01*
X129720857Y-111085000D01*
X129816095Y-111037380D01*
X130054190Y-111037380D01*
X130197047Y-111085000D01*
X131006571Y-111989761D02*
X130911333Y-112037380D01*
X130720857Y-112037380D01*
X130625619Y-111989761D01*
X130578000Y-111894523D01*
X130578000Y-111513571D01*
X130625619Y-111418333D01*
X130720857Y-111370714D01*
X130911333Y-111370714D01*
X131006571Y-111418333D01*
X131054190Y-111513571D01*
X131054190Y-111608809D01*
X130578000Y-111704047D01*
X131482761Y-111370714D02*
X131482761Y-112037380D01*
X131482761Y-111465952D02*
X131530380Y-111418333D01*
X131625619Y-111370714D01*
X131768476Y-111370714D01*
X131863714Y-111418333D01*
X131911333Y-111513571D01*
X131911333Y-112037380D01*
X132339904Y-111989761D02*
X132435142Y-112037380D01*
X132625619Y-112037380D01*
X132720857Y-111989761D01*
X132768476Y-111894523D01*
X132768476Y-111846904D01*
X132720857Y-111751666D01*
X132625619Y-111704047D01*
X132482761Y-111704047D01*
X132387523Y-111656428D01*
X132339904Y-111561190D01*
X132339904Y-111513571D01*
X132387523Y-111418333D01*
X132482761Y-111370714D01*
X132625619Y-111370714D01*
X132720857Y-111418333D01*
X133339904Y-112037380D02*
X133244666Y-111989761D01*
X133197047Y-111942142D01*
X133149428Y-111846904D01*
X133149428Y-111561190D01*
X133197047Y-111465952D01*
X133244666Y-111418333D01*
X133339904Y-111370714D01*
X133482761Y-111370714D01*
X133578000Y-111418333D01*
X133625619Y-111465952D01*
X133673238Y-111561190D01*
X133673238Y-111846904D01*
X133625619Y-111942142D01*
X133578000Y-111989761D01*
X133482761Y-112037380D01*
X133339904Y-112037380D01*
X134101809Y-112037380D02*
X134101809Y-111370714D01*
X134101809Y-111561190D02*
X134149428Y-111465952D01*
X134197047Y-111418333D01*
X134292285Y-111370714D01*
X134387523Y-111370714D01*
X135244666Y-112037380D02*
X134673238Y-112037380D01*
X134958952Y-112037380D02*
X134958952Y-111037380D01*
X134863714Y-111180238D01*
X134768476Y-111275476D01*
X134673238Y-111323095D01*
%TO.C,P1*%
X147089904Y-121737380D02*
X147089904Y-120737380D01*
X147470857Y-120737380D01*
X147566095Y-120785000D01*
X147613714Y-120832619D01*
X147661333Y-120927857D01*
X147661333Y-121070714D01*
X147613714Y-121165952D01*
X147566095Y-121213571D01*
X147470857Y-121261190D01*
X147089904Y-121261190D01*
X148613714Y-121737380D02*
X148042285Y-121737380D01*
X148328000Y-121737380D02*
X148328000Y-120737380D01*
X148232761Y-120880238D01*
X148137523Y-120975476D01*
X148042285Y-121023095D01*
%TO.C,P2*%
X167663904Y-121737380D02*
X167663904Y-120737380D01*
X168044857Y-120737380D01*
X168140095Y-120785000D01*
X168187714Y-120832619D01*
X168235333Y-120927857D01*
X168235333Y-121070714D01*
X168187714Y-121165952D01*
X168140095Y-121213571D01*
X168044857Y-121261190D01*
X167663904Y-121261190D01*
X168616285Y-120832619D02*
X168663904Y-120785000D01*
X168759142Y-120737380D01*
X168997238Y-120737380D01*
X169092476Y-120785000D01*
X169140095Y-120832619D01*
X169187714Y-120927857D01*
X169187714Y-121023095D01*
X169140095Y-121165952D01*
X168568666Y-121737380D01*
X169187714Y-121737380D01*
%TO.C,P3*%
X140485904Y-78811380D02*
X140485904Y-77811380D01*
X140866857Y-77811380D01*
X140962095Y-77859000D01*
X141009714Y-77906619D01*
X141057333Y-78001857D01*
X141057333Y-78144714D01*
X141009714Y-78239952D01*
X140962095Y-78287571D01*
X140866857Y-78335190D01*
X140485904Y-78335190D01*
X141390666Y-77811380D02*
X142009714Y-77811380D01*
X141676380Y-78192333D01*
X141819238Y-78192333D01*
X141914476Y-78239952D01*
X141962095Y-78287571D01*
X142009714Y-78382809D01*
X142009714Y-78620904D01*
X141962095Y-78716142D01*
X141914476Y-78763761D01*
X141819238Y-78811380D01*
X141533523Y-78811380D01*
X141438285Y-78763761D01*
X141390666Y-78716142D01*
%TO.C,P4*%
X164869904Y-78811380D02*
X164869904Y-77811380D01*
X165250857Y-77811380D01*
X165346095Y-77859000D01*
X165393714Y-77906619D01*
X165441333Y-78001857D01*
X165441333Y-78144714D01*
X165393714Y-78239952D01*
X165346095Y-78287571D01*
X165250857Y-78335190D01*
X164869904Y-78335190D01*
X166298476Y-78144714D02*
X166298476Y-78811380D01*
X166060380Y-77763761D02*
X165822285Y-78478047D01*
X166441333Y-78478047D01*
%TD*%
M02*
